# xmcd CD database file generated by MAGIX-FreeDB-Music_Manager_2007 v2.0beta1
# 
# Track frame offsets:
#      150
#      13077
#      23967
#      35442
#      45752
#      58482
#      71950
#      80750
#      90937
#      101690
#      113297
#      124780
#      137272
#      145020
# 
# Disc length: 2060 seconds
# 
# Revision: 0 
# Processed by: cddbd v1.5.2PL0 Copyright (c) Steve Scherf et al.
# Submitted via: MAGIX-FreeDB-Music_Manager_2007 v2.0beta1
# 
DISCID=b2080a0e
DTITLE=Bing Crosby - Bing Crosby
DYEAR=1995
DGENRE=
TTITLE0=Bing Crosby - / Yes Sir, That's My baby
TTITLE1=Bing Crosby - / My Baby Just Cares For Me
TTITLE2=Bing Crosby - / True Love
TTITLE3=Bing Crosby - /Heartaches By The Number
TTITLE4=Bing Crosby - /Unchained Melody
TTITLE5=Bing Crosby - /Isie Of Capri
TTITLE6=Bing Crosby - /Way Down Yonder in New Orlans
TTITLE7=Bing Crosby - /When The Red, Robin comes Bob-Bob-bobbin' Along
TTITLE8=Bing Crosby - /The Lady is a tramp
TTITLE9=Bing Crosby - /This Can't be Love
TTITLE10=Bing Crosby - /IGuess I'II Have to Change my Plan
TTITLE11=Bing Crosby - /Try a little Tenderness
TTITLE12=Bing Crosby - /Mandy
TTITLE13=Bing Crosby - /Where or when
EXTD=
EXTT0=
EXTT1=
EXTT2=
EXTT3=
EXTT4=
EXTT5=
EXTT6=
EXTT7=
EXTT8=
EXTT9=
EXTT10=
EXTT11=
EXTT12=
EXTT13=
PLAYORDER=
